<svg width="53" height="43" viewBox="0 0 53 43" fill="none" xmlns="http://www.w3.org/2000/svg">
<path d="M47.2767 0H5.72332C2.56721 0.00923287 0.00459335 2.57615 0 5.74785V37.2521C0.00460042 40.4239 2.56721 42.9908 5.72332 43H47.2767C50.4328 42.9908 52.9954 40.4239 53 37.2521V5.74785C52.9954 2.57615 50.4328 0.00921869 47.2767 0ZM5.72332 3.27323H47.2767C48.6338 3.28246 49.7288 4.38586 49.738 5.74785V29.6905L44.0147 23.9564C43.4166 23.3516 42.6023 23.01 41.7511 23.01C40.9046 23.01 40.0902 23.3516 39.4921 23.9564L35.6873 27.7653C35.0892 28.3701 34.2749 28.7117 33.4237 28.7117C32.5772 28.7117 31.7628 28.3701 31.1647 27.7653L19.939 16.5143C18.6877 15.2632 16.668 15.2632 15.4166 16.5143L3.26187 28.7114V5.74738C3.27107 4.3855 4.36616 3.28256 5.72332 3.27323Z" fill="#62C2FF"/>
</svg>
