<svg width="20" height="20" viewBox="0 0 20 20" fill="none" xmlns="http://www.w3.org/2000/svg">
<g clip-path="url(#clip0_805_10938)">
<path d="M11.2498 5.41772C11.2498 5.74924 11.1181 6.06718 10.8837 6.3016C10.6493 6.53602 10.3313 6.66772 9.9998 6.66772C9.66828 6.66772 9.35034 6.53602 9.11592 6.3016C8.8815 6.06718 8.7498 5.74924 8.7498 5.41772C8.7498 5.0862 8.8815 4.76826 9.11592 4.53384C9.35034 4.29942 9.66828 4.16772 9.9998 4.16772C10.3313 4.16772 10.6493 4.29942 10.8837 4.53384C11.1181 4.76826 11.2498 5.0862 11.2498 5.41772V5.41772ZM19.9998 15.8344V10.2844C20.0309 7.71559 19.0891 5.23013 17.3634 3.32703C15.6377 1.42393 13.256 0.244084 10.6965 0.0243861C9.26784 -0.0755658 7.83441 0.132503 6.49316 0.634513C5.15191 1.13652 3.93414 1.92077 2.92223 2.93418C1.91032 3.94759 1.12788 5.16652 0.627862 6.50852C0.12784 7.85051 -0.0781028 9.28424 0.0239669 10.7127C0.3923 16.0077 5.06813 20.0011 10.9023 20.0011H15.8331C16.9378 19.9997 17.9968 19.5603 18.778 18.7792C19.5591 17.9981 19.9985 16.939 19.9998 15.8344V15.8344ZM10.5831 1.68772C12.7218 1.87692 14.7097 2.86848 16.1474 4.46318C17.585 6.05788 18.3659 8.13757 18.3331 10.2844V15.8344C18.3331 16.4974 18.0697 17.1333 17.6009 17.6022C17.1321 18.071 16.4962 18.3344 15.8331 18.3344H10.9023C5.87397 18.3344 1.9998 15.0844 1.6873 10.5977C1.60526 9.45487 1.75978 8.30738 2.1412 7.22694C2.52263 6.1465 3.12276 5.15633 3.90411 4.31828C4.68546 3.48023 5.63124 2.81231 6.68236 2.35626C7.73347 1.9002 8.86735 1.66581 10.0131 1.66772C10.2023 1.66772 10.3931 1.67522 10.5831 1.68772ZM11.6665 15.0011V10.0011C11.6665 9.55903 11.4909 9.1351 11.1783 8.82254C10.8658 8.50998 10.4418 8.33439 9.9998 8.33439H9.16647C8.94545 8.33439 8.73349 8.42218 8.57721 8.57846C8.42093 8.73474 8.33313 8.94671 8.33313 9.16772C8.33313 9.38873 8.42093 9.6007 8.57721 9.75698C8.73349 9.91326 8.94545 10.0011 9.16647 10.0011H9.9998V15.0011C9.9998 15.2221 10.0876 15.434 10.2439 15.5903C10.4002 15.7466 10.6121 15.8344 10.8331 15.8344C11.0541 15.8344 11.2661 15.7466 11.4224 15.5903C11.5787 15.434 11.6665 15.2221 11.6665 15.0011Z" fill="#535364"/>
</g>
<defs>
<clipPath id="clip0_805_10938">
<rect width="20" height="20" fill="white"/>
</clipPath>
</defs>
</svg>
