<svg width="60" height="60" viewBox="0 0 60 60" fill="none" xmlns="http://www.w3.org/2000/svg">
<path d="M30 0C22.0422 0 14.4141 3.1604 8.78538 8.78538C3.1604 14.414 0 22.0425 0 30C0 37.9575 3.1604 45.5859 8.78538 51.2146C14.414 56.8396 22.0425 60 30 60C37.9575 60 45.5859 56.8396 51.2146 51.2146C56.8396 45.586 60 37.9575 60 30C59.989 22.0459 56.825 14.4216 51.2 8.80038C45.5787 3.1754 37.9537 0.0109687 30 0ZM25.4993 10.8365C28.0774 10.8365 30.4028 12.3892 31.3879 14.7733C32.3766 17.1537 31.831 19.8965 30.0072 21.7203C28.1835 23.544 25.4442 24.0896 23.0602 23.101C20.6798 22.1158 19.1234 19.7905 19.1234 17.2124C19.1234 15.5205 19.7936 13.8981 20.9911 12.7043C22.1849 11.5068 23.8074 10.8365 25.4993 10.8365ZM30 56.2498C20.7422 56.2425 12.1763 51.3536 7.46351 43.3883L14.59 34.8776L14.5863 34.8739C15.597 33.6618 17.0912 32.9623 18.6659 32.9623C20.2406 32.9623 21.7347 33.6618 22.7455 34.8739C22.7455 34.8739 26.6823 39.5797 26.8508 39.7848V39.7885C27.206 40.2206 27.7333 40.4806 28.2937 40.4989C28.8649 40.5173 29.4142 40.2682 29.7768 39.8251C34.8012 33.768 39.3017 28.3886 39.3017 28.3886C40.3125 27.1764 41.8103 26.4769 43.3887 26.4769C44.967 26.4769 46.4648 27.1764 47.4756 28.3886L55.1258 37.5584V37.5548C53.4961 42.9564 50.1746 47.6882 45.6486 51.0529C41.1259 54.4183 35.639 56.2425 30 56.2498Z" fill="#62C2FF"/>
</svg>
