<svg width="23" height="23" viewBox="0 0 23 23" fill="none" xmlns="http://www.w3.org/2000/svg">
<path d="M9.6887 10.6836H7.14913C6.54538 10.6836 6.05664 11.1723 6.05664 11.776V16.6827H9.6887V10.6836V10.6836Z" stroke="#535364" stroke-width="1.5" stroke-miterlimit="10" stroke-linecap="round" stroke-linejoin="round"/>
<path d="M12.2289 6.32422H10.7722C10.1684 6.32422 9.67969 6.81298 9.67969 7.41673V16.6743H13.3118V7.41673C13.3118 6.81298 12.8326 6.32422 12.2289 6.32422Z" stroke="#535364" stroke-width="1.5" stroke-miterlimit="10" stroke-linecap="round" stroke-linejoin="round"/>
<path d="M15.8579 12.3125H13.3184V16.673H16.9505V13.405C16.9409 12.8013 16.4521 12.3125 15.8579 12.3125Z" stroke="#535364" stroke-width="1.5" stroke-miterlimit="10" stroke-linecap="round" stroke-linejoin="round"/>
<path d="M8.62435 21.0846H14.3743C19.166 21.0846 21.0827 19.168 21.0827 14.3763V8.6263C21.0827 3.83464 19.166 1.91797 14.3743 1.91797H8.62435C3.83268 1.91797 1.91602 3.83464 1.91602 8.6263V14.3763C1.91602 19.168 3.83268 21.0846 8.62435 21.0846Z" stroke="#535364" stroke-width="1.5" stroke-linecap="round" stroke-linejoin="round"/>
</svg>
