<svg width="20" height="20" viewBox="0 0 20 20" fill="none" xmlns="http://www.w3.org/2000/svg">
<path d="M7.22656 11.9422C7.22656 13.0172 8.05156 13.8839 9.07656 13.8839H11.1682C12.0599 13.8839 12.7849 13.1255 12.7849 12.1922C12.7849 11.1755 12.3432 10.8172 11.6849 10.5839L8.32656 9.41719C7.66823 9.18385 7.22656 8.82552 7.22656 7.80885C7.22656 6.87552 7.95156 6.11719 8.84323 6.11719H10.9349C11.9599 6.11719 12.7849 6.98385 12.7849 8.05885" stroke="url(#paint0_linear_805_11152)" stroke-width="1.5" stroke-linecap="round" stroke-linejoin="round"/>
<path d="M10 5V15" stroke="url(#paint1_linear_805_11152)" stroke-width="1.5" stroke-linecap="round" stroke-linejoin="round"/>
<path d="M12.5001 18.3346H7.50008C3.33341 18.3346 1.66675 16.668 1.66675 12.5013V7.5013C1.66675 3.33464 3.33341 1.66797 7.50008 1.66797H12.5001C16.6667 1.66797 18.3334 3.33464 18.3334 7.5013V12.5013C18.3334 16.668 16.6667 18.3346 12.5001 18.3346Z" stroke="url(#paint2_linear_805_11152)" stroke-width="1.5" stroke-linecap="round" stroke-linejoin="round"/>
<defs>
<linearGradient id="paint0_linear_805_11152" x1="10.0057" y1="6.11719" x2="10.0057" y2="13.8839" gradientUnits="userSpaceOnUse">
<stop stop-color="#00DB62"/>
<stop offset="1" stop-color="#0DA2FF"/>
</linearGradient>
<linearGradient id="paint1_linear_805_11152" x1="10.5" y1="5" x2="10.5" y2="15" gradientUnits="userSpaceOnUse">
<stop stop-color="#00DB62"/>
<stop offset="1" stop-color="#0DA2FF"/>
</linearGradient>
<linearGradient id="paint2_linear_805_11152" x1="10.0001" y1="1.66797" x2="10.0001" y2="18.3346" gradientUnits="userSpaceOnUse">
<stop stop-color="#00DB62"/>
<stop offset="1" stop-color="#0DA2FF"/>
</linearGradient>
</defs>
</svg>
