<svg width="32" height="32" viewBox="0 0 32 32" fill="none" xmlns="http://www.w3.org/2000/svg">
<circle cx="16" cy="16" r="16" fill="#FFC107"/>
<path d="M22 13.1875V20.5C22 22.75 20.6575 23.5 19 23.5H13C11.3425 23.5 10 22.75 10 20.5V13.1875C10 10.75 11.3425 10.1875 13 10.1875C13 10.6525 13.1875 11.0725 13.495 11.38C13.8025 11.6875 14.2225 11.875 14.6875 11.875H17.3125C18.2425 11.875 19 11.1175 19 10.1875C20.6575 10.1875 22 10.75 22 13.1875Z" stroke="white" stroke-width="1.2" stroke-linecap="round" stroke-linejoin="round"/>
<path d="M19 10.1875C19 11.1175 18.2425 11.875 17.3125 11.875H14.6875C14.2225 11.875 13.8025 11.6875 13.495 11.38C13.1875 11.0725 13 10.6525 13 10.1875C13 9.2575 13.7575 8.5 14.6875 8.5H17.3125C17.7775 8.5 18.1975 8.6875 18.505 8.995C18.8125 9.3025 19 9.7225 19 10.1875Z" stroke="white" stroke-width="1.2" stroke-linecap="round" stroke-linejoin="round"/>
<path d="M13 16.75H16" stroke="white" stroke-width="1.2" stroke-linecap="round" stroke-linejoin="round"/>
<path d="M13 19.75H19" stroke="white" stroke-width="1.2" stroke-linecap="round" stroke-linejoin="round"/>
</svg>
