<svg width="38" height="38" viewBox="0 0 38 38" fill="none" xmlns="http://www.w3.org/2000/svg">
<circle cx="19" cy="19" r="18.25" fill="white" stroke="url(#paint0_linear_805_10162)" stroke-width="1.5"/>
<path d="M26.3231 17.9996L24.9698 16.6085C24.9057 16.5442 24.8208 16.5078 24.7319 16.5078H20.6328V20.0421H24.7277C24.8188 20.0421 24.9057 20.0035 24.9698 19.9371L26.3272 18.4947C26.4575 18.3575 26.4555 18.1367 26.3231 18.0017V17.9996Z" fill="#0DA2FF"/>
<path d="M12.6941 19.6602C12.6031 19.6602 12.5162 19.6987 12.4521 19.7652L11.0967 21.2012C10.9664 21.3384 10.9685 21.5591 11.0988 21.6942L12.4541 23.0916C12.5183 23.1559 12.6031 23.1945 12.6921 23.1945H16.0917V19.6602H12.6941Z" fill="#00DB62"/>
<path d="M24.1243 9H21.4924C17.9458 9 16.0918 10.3353 16.0918 13.3681V28.9349C16.0918 29.1278 16.2428 29.2842 16.4291 29.2842H20.2943C20.4805 29.2842 20.6316 29.1278 20.6316 28.9349V13.5074C20.6316 12.5343 21.1427 12.0606 22.1897 12.0606H24.1243C24.3106 12.0606 24.4616 11.9042 24.4616 11.7113V9.34936C24.4616 9.15646 24.3106 9 24.1243 9Z" fill="url(#paint1_linear_805_10162)"/>
<defs>
<linearGradient id="paint0_linear_805_10162" x1="19" y1="0" x2="19" y2="38" gradientUnits="userSpaceOnUse">
<stop stop-color="#00DB62"/>
<stop offset="1" stop-color="#0DA2FF"/>
</linearGradient>
<linearGradient id="paint1_linear_805_10162" x1="20.2767" y1="9" x2="20.2767" y2="29.2842" gradientUnits="userSpaceOnUse">
<stop stop-color="#00DA63"/>
<stop offset="1" stop-color="#0DA3FB"/>
</linearGradient>
</defs>
</svg>
