<svg width="15" height="16" viewBox="0 0 15 16" fill="none" xmlns="http://www.w3.org/2000/svg">
<g clip-path="url(#clip0_2154_6081)">
<path d="M15 6.75005C15 6.70443 14.995 6.65894 14.985 6.61443L14.1725 2.94693C14.0215 2.25083 13.6358 1.62779 13.0801 1.18229C12.5243 0.736791 11.8323 0.495915 11.12 0.500052H3.88C3.16816 0.49649 2.47671 0.737629 1.92146 1.18308C1.3662 1.62853 0.980873 2.25125 0.830001 2.94693L0.0150009 6.61443C0.00500592 6.65894 -2.47874e-05 6.70443 8.55874e-07 6.75005V7.37505C-0.000503399 7.98355 0.221827 8.57117 0.625001 9.02693V12.3751C0.625993 13.2036 0.955552 13.9978 1.54139 14.5837C2.12722 15.1695 2.9215 15.4991 3.75 15.5001H11.25C12.0785 15.4991 12.8728 15.1695 13.4586 14.5837C14.0445 13.9978 14.374 13.2036 14.375 12.3751V9.02693C14.7782 8.57117 15.0005 7.98355 15 7.37505V6.75005ZM1.25 6.81818L2.05 3.21818C2.14065 2.80084 2.37189 2.42729 2.70501 2.16004C3.03813 1.89279 3.45293 1.74805 3.88 1.75005H4.375V3.62505C4.375 3.79081 4.44085 3.94978 4.55806 4.06699C4.67527 4.1842 4.83424 4.25005 5 4.25005C5.16576 4.25005 5.32473 4.1842 5.44194 4.06699C5.55915 3.94978 5.625 3.79081 5.625 3.62505V1.75005H9.375V3.62505C9.375 3.79081 9.44085 3.94978 9.55806 4.06699C9.67527 4.1842 9.83424 4.25005 10 4.25005C10.1658 4.25005 10.3247 4.1842 10.4419 4.06699C10.5592 3.94978 10.625 3.79081 10.625 3.62505V1.75005H11.12C11.5471 1.74805 11.9619 1.89279 12.295 2.16004C12.6281 2.42729 12.8593 2.80084 12.95 3.21818L13.75 6.81818V7.37505C13.75 7.70657 13.6183 8.02452 13.3839 8.25894C13.1495 8.49336 12.8315 8.62505 12.5 8.62505H11.875C11.5435 8.62505 11.2255 8.49336 10.9911 8.25894C10.7567 8.02452 10.625 7.70657 10.625 7.37505C10.625 7.20929 10.5592 7.05032 10.4419 6.93311C10.3247 6.8159 10.1658 6.75005 10 6.75005C9.83424 6.75005 9.67527 6.8159 9.55806 6.93311C9.44085 7.05032 9.375 7.20929 9.375 7.37505C9.375 7.70657 9.2433 8.02452 9.00888 8.25894C8.77446 8.49336 8.45652 8.62505 8.125 8.62505H6.875C6.54348 8.62505 6.22554 8.49336 5.99112 8.25894C5.7567 8.02452 5.625 7.70657 5.625 7.37505C5.625 7.20929 5.55915 7.05032 5.44194 6.93311C5.32473 6.8159 5.16576 6.75005 5 6.75005C4.83424 6.75005 4.67527 6.8159 4.55806 6.93311C4.44085 7.05032 4.375 7.20929 4.375 7.37505C4.375 7.70657 4.2433 8.02452 4.00888 8.25894C3.77446 8.49336 3.45652 8.62505 3.125 8.62505H2.5C2.16848 8.62505 1.85054 8.49336 1.61612 8.25894C1.3817 8.02452 1.25 7.70657 1.25 7.37505V6.81818ZM11.25 14.2501H3.75C3.25272 14.2501 2.77581 14.0525 2.42418 13.7009C2.07255 13.3492 1.875 12.8723 1.875 12.3751V9.79568C2.07913 9.84853 2.28914 9.87521 2.5 9.87505H3.125C3.47989 9.87524 3.83072 9.79968 4.15407 9.65342C4.47741 9.50716 4.76581 9.29357 5 9.02693C5.23419 9.29357 5.52259 9.50716 5.84594 9.65342C6.16928 9.79968 6.52012 9.87524 6.875 9.87505H8.125C8.47989 9.87524 8.83072 9.79968 9.15407 9.65342C9.47741 9.50716 9.76581 9.29357 10 9.02693C10.2342 9.29357 10.5226 9.50716 10.8459 9.65342C11.1693 9.79968 11.5201 9.87524 11.875 9.87505H12.5C12.7109 9.87521 12.9209 9.84853 13.125 9.79568V12.3751C13.125 12.8723 12.9275 13.3492 12.5758 13.7009C12.2242 14.0525 11.7473 14.2501 11.25 14.2501Z" fill="#535364"/>
</g>
<defs>
<clipPath id="clip0_2154_6081">
<rect width="15" height="15" fill="white" transform="translate(0 0.5)"/>
</clipPath>
</defs>
</svg>
