<svg width="15" height="15" viewBox="0 0 15 15" fill="none" xmlns="http://www.w3.org/2000/svg">
<path d="M11.66 0.580563L4.04001 8.20056C3.74898 8.49003 3.51825 8.83435 3.36119 9.21359C3.20413 9.59283 3.12385 9.99946 3.12501 10.4099V11.2493C3.12501 11.4151 3.19086 11.574 3.30807 11.6913C3.42528 11.8085 3.58425 11.8743 3.75001 11.8743H4.58939C4.99986 11.8755 5.40649 11.7952 5.78574 11.6381C6.16498 11.4811 6.5093 11.2503 6.79876 10.9593L14.4188 3.33931C14.784 2.97317 14.9891 2.47711 14.9891 1.95994C14.9891 1.44277 14.784 0.946706 14.4188 0.580563C14.0473 0.225496 13.5532 0.0273437 13.0394 0.0273438C12.5255 0.0273438 12.0315 0.225496 11.66 0.580563ZM13.535 2.45556L5.91501 10.0756C5.56259 10.4258 5.08627 10.623 4.58939 10.6243H4.37501V10.4099C4.37631 9.91306 4.57349 9.43673 4.92376 9.08431L12.5438 1.46431C12.6773 1.33678 12.8548 1.26562 13.0394 1.26562C13.224 1.26562 13.4015 1.33678 13.535 1.46431C13.6662 1.59588 13.7399 1.77412 13.7399 1.95994C13.7399 2.14576 13.6662 2.32399 13.535 2.45556Z" fill="#6D758F"/>
<path d="M14.375 5.61188C14.2092 5.61188 14.0503 5.67772 13.9331 5.79493C13.8158 5.91214 13.75 6.07112 13.75 6.23688V9.375H11.25C10.7527 9.375 10.2758 9.57255 9.92418 9.92418C9.57255 10.2758 9.375 10.7527 9.375 11.25V13.75H3.125C2.62772 13.75 2.15081 13.5525 1.79918 13.2008C1.44754 12.8492 1.25 12.3723 1.25 11.875V3.125C1.25 2.62772 1.44754 2.15081 1.79918 1.79918C2.15081 1.44754 2.62772 1.25 3.125 1.25H8.77625C8.94201 1.25 9.10098 1.18415 9.21819 1.06694C9.3354 0.949732 9.40125 0.79076 9.40125 0.625C9.40125 0.45924 9.3354 0.300269 9.21819 0.183058C9.10098 0.065848 8.94201 0 8.77625 0L3.125 0C2.2965 0.000992411 1.50222 0.330551 0.916387 0.916387C0.330551 1.50222 0.000992411 2.2965 0 3.125L0 11.875C0.000992411 12.7035 0.330551 13.4978 0.916387 14.0836C1.50222 14.6695 2.2965 14.999 3.125 15H10.2144C10.6249 15.0012 11.0317 14.9209 11.411 14.7638C11.7904 14.6068 12.1348 14.3761 12.4244 14.085L14.0844 12.4238C14.3755 12.1343 14.6063 11.79 14.7634 11.4108C14.9206 11.0315 15.001 10.6249 15 10.2144V6.23688C15 6.07112 14.9342 5.91214 14.8169 5.79493C14.6997 5.67772 14.5408 5.61188 14.375 5.61188ZM11.5406 13.2013C11.2894 13.4519 10.9717 13.6254 10.625 13.7013V11.25C10.625 11.0842 10.6908 10.9253 10.8081 10.8081C10.9253 10.6908 11.0842 10.625 11.25 10.625H13.7031C13.6258 10.9709 13.4525 11.2881 13.2031 11.54L11.5406 13.2013Z" fill="#6D758F"/>
</svg>
