<svg width="17" height="17" viewBox="0 0 17 17" fill="none" xmlns="http://www.w3.org/2000/svg">
<g clip-path="url(#clip0_805_10203)">
<path d="M7.09081 7.33428C7.09161 7.57822 7.28956 7.77558 7.53351 7.77558C7.53351 7.77558 8.29283 7.77558 8.58608 7.76708C9.67126 7.74865 10.4504 6.80515 10.4504 5.52451C10.4504 4.17869 9.6854 3.27344 8.54783 3.27344H7.52571C7.28097 3.27423 7.08301 3.47282 7.08301 3.71756L7.09081 7.33428ZM8.55069 4.1588C9.30081 4.1588 9.56786 4.86712 9.56786 5.52448C9.56786 6.18183 9.26044 6.8703 8.57267 6.88165C8.43099 6.88165 8.19159 6.8866 7.97484 6.88803L7.97129 4.15883L8.55069 4.1588Z" fill="#6BBDEF"/>
<path d="M12.9274 7.39489V6.11988H13.805C13.9224 6.11988 14.0351 6.07324 14.1181 5.99022C14.2011 5.9072 14.2477 5.79459 14.2477 5.67718C14.2477 5.55976 14.2011 5.44716 14.1181 5.36414C14.0351 5.28111 13.9224 5.23447 13.805 5.23447H12.9274V4.42839H13.9106C14.028 4.42839 14.1406 4.38174 14.2236 4.29872C14.3066 4.2157 14.3533 4.10309 14.3533 3.98568C14.3533 3.86826 14.3066 3.75566 14.2236 3.67264C14.1406 3.58961 14.028 3.54297 13.9106 3.54297H12.4847C12.3673 3.54297 12.2547 3.58961 12.1717 3.67264C12.0886 3.75566 12.042 3.86826 12.042 3.98568V7.39489C12.042 7.5123 12.0886 7.6249 12.1717 7.70793C12.2547 7.79095 12.3673 7.83759 12.4847 7.83759C12.6021 7.83759 12.7147 7.79095 12.7977 7.70793C12.8808 7.6249 12.9274 7.5123 12.9274 7.39489Z" fill="#6BBDEF"/>
<path d="M2.91895 3.66141V7.38866C2.91895 7.63317 3.11717 7.83136 3.36164 7.83136C3.60612 7.83136 3.80434 7.63314 3.80434 7.38866V6.21072H4.39934C5.22477 6.21072 5.89392 5.54157 5.89392 4.71614C5.89392 3.89071 5.22477 3.22157 4.39934 3.22157L4.39509 3.21875H3.35739C3.32734 3.21928 3.1689 3.22509 3.04362 3.35505C2.92379 3.47936 2.91918 3.62937 2.91895 3.66141ZM4.39509 5.32247H3.80577L3.80152 4.10414H4.39509C4.73154 4.10398 5.0044 4.37658 5.00457 4.71302C5.00474 5.04947 4.73214 5.32233 4.39569 5.3225C4.39552 5.32247 4.39529 5.32247 4.39509 5.32247Z" fill="#6BBDEF"/>
<path d="M13.4583 0H3.54168C1.58664 0.00235742 0.00235742 1.58664 0 3.54168V13.4584C0.00235742 15.4134 1.58664 16.9977 3.54168 17H11.5763C12.5162 17.0027 13.4181 16.6293 14.081 15.963L15.9623 14.0802C16.6287 13.4176 17.0023 12.516 17 11.5763V3.54168C16.9977 1.58664 15.4134 0.00235742 13.4583 0ZM1.41668 13.4583V3.54168C1.41668 2.36808 2.36808 1.41668 3.54168 1.41668H13.4584C14.632 1.41668 15.5834 2.36808 15.5834 3.54168V10.625H12.75C11.5764 10.625 10.625 11.5764 10.625 12.75V15.5833H3.54168C2.36805 15.5833 1.41668 14.632 1.41668 13.4583ZM13.0794 14.9614C12.7946 15.2455 12.4346 15.4421 12.0417 15.5281V12.75C12.0417 12.3588 12.3588 12.0417 12.75 12.0417H15.5302C15.4426 12.4337 15.2462 12.7932 14.9635 13.0787L13.0794 14.9614Z" fill="#6BBDEF"/>
</g>
<defs>
<clipPath id="clip0_805_10203">
<rect width="17" height="17" fill="white"/>
</clipPath>
</defs>
</svg>
