<svg width="15" height="15" viewBox="0 0 15 15" fill="none" xmlns="http://www.w3.org/2000/svg">
<g clip-path="url(#clip0_715_13601)">
<path d="M14.5443 5.88766C13.575 4.30891 11.37 1.66016 7.49997 1.66016C3.62997 1.66016 1.42497 4.30891 0.455596 5.88766C0.155926 6.37235 -0.00280762 6.93093 -0.00280762 7.50078C-0.00280762 8.07063 0.155926 8.62922 0.455596 9.11391C1.42497 10.6927 3.62997 13.3414 7.49997 13.3414C11.37 13.3414 13.575 10.6927 14.5443 9.11391C14.844 8.62922 15.0028 8.07063 15.0028 7.50078C15.0028 6.93093 14.844 6.37235 14.5443 5.88766ZM13.4787 8.45953C12.6462 9.81328 10.7618 12.0914 7.49997 12.0914C4.2381 12.0914 2.35372 9.81328 1.52122 8.45953C1.34318 8.17143 1.24888 7.83945 1.24888 7.50078C1.24888 7.16211 1.34318 6.83013 1.52122 6.54203C2.35372 5.18828 4.2381 2.91016 7.49997 2.91016C10.7618 2.91016 12.6462 5.18578 13.4787 6.54203C13.6568 6.83013 13.7511 7.16211 13.7511 7.50078C13.7511 7.83945 13.6568 8.17143 13.4787 8.45953Z" fill="#6D758F"/>
<path d="M7.49988 4.375C6.88181 4.375 6.27763 4.55828 5.76372 4.90166C5.24982 5.24504 4.84928 5.7331 4.61276 6.30411C4.37623 6.87513 4.31435 7.50347 4.43493 8.10966C4.5555 8.71585 4.85313 9.27267 5.29017 9.70971C5.72721 10.1467 6.28403 10.4444 6.89022 10.565C7.49641 10.6855 8.12475 10.6236 8.69577 10.3871C9.26678 10.1506 9.75484 9.75006 10.0982 9.23616C10.4416 8.72225 10.6249 8.11807 10.6249 7.5C10.6239 6.6715 10.2943 5.87722 9.70849 5.29139C9.12266 4.70555 8.32838 4.37599 7.49988 4.375ZM7.49988 9.375C7.12904 9.375 6.76653 9.26503 6.45818 9.05901C6.14984 8.85298 5.90952 8.56014 5.7676 8.21753C5.62569 7.87492 5.58856 7.49792 5.66091 7.13421C5.73325 6.77049 5.91183 6.4364 6.17405 6.17417C6.43628 5.91195 6.77037 5.73337 7.13409 5.66103C7.4978 5.58868 7.8748 5.62581 8.21741 5.76773C8.56002 5.90964 8.85286 6.14996 9.05888 6.45831C9.26491 6.76665 9.37488 7.12916 9.37488 7.5C9.37488 7.99728 9.17734 8.4742 8.82571 8.82583C8.47407 9.17746 7.99716 9.375 7.49988 9.375Z" fill="#6D758F"/>
</g>
<defs>
<clipPath id="clip0_715_13601">
<rect width="15" height="15" fill="white"/>
</clipPath>
</defs>
</svg>
