<svg width="21" height="21" viewBox="0 0 21 21" fill="none" xmlns="http://www.w3.org/2000/svg">
<g clip-path="url(#clip0_805_11908)">
<path d="M19.0192 14.3501C18.7253 13.4837 18.1677 12.7311 17.4246 12.1976C16.6814 11.664 15.79 11.3764 14.8752 11.3751H11.3752V10.4266C12.6731 10.2072 13.8413 9.50817 14.6482 8.46808C15.4551 7.428 15.8419 6.12274 15.7318 4.81096C15.6217 3.49919 15.0228 2.27664 14.0539 1.38558C13.0849 0.494528 11.8166 0 10.5002 0C9.18379 0 7.91544 0.494528 6.94647 1.38558C5.97751 2.27664 5.37865 3.49919 5.26856 4.81096C5.15848 6.12274 5.54521 7.428 6.35211 8.46808C7.15901 9.50817 8.3272 10.2072 9.62517 10.4266V11.3751H6.12517C5.21036 11.3764 4.3189 11.664 3.57575 12.1976C2.83261 12.7311 2.27503 13.4837 1.98117 14.3501C1.2305 14.7122 0.633708 15.3304 0.298151 16.0933C-0.0374056 16.8562 -0.0896957 17.7138 0.150689 18.5119C0.391073 19.3099 0.908351 19.996 1.60946 20.4466C2.31057 20.8973 3.14949 21.083 3.97529 20.9703C4.80109 20.8575 5.55957 20.4538 6.11426 19.8318C6.66895 19.2097 6.98344 18.4101 7.00116 17.5768C7.01888 16.7436 6.73867 15.9313 6.21093 15.2862C5.68318 14.6411 4.94256 14.2055 4.1223 14.0578C4.36829 13.7661 4.67492 13.5316 5.02082 13.3705C5.36673 13.2094 5.7436 13.1256 6.12517 13.1251H9.62517V14.1112C8.80035 14.3242 8.08151 14.8306 7.6034 15.5357C7.12529 16.2408 6.92073 17.096 7.02807 17.9411C7.13541 18.7862 7.54728 19.5631 8.18647 20.1262C8.82566 20.6894 9.6483 21.0001 10.5002 21.0001C11.352 21.0001 12.1747 20.6894 12.8139 20.1262C13.4531 19.5631 13.8649 18.7862 13.9723 17.9411C14.0796 17.096 13.8751 16.2408 13.3969 15.5357C12.9188 14.8306 12.2 14.3242 11.3752 14.1112V13.1251H14.8752C15.2565 13.1253 15.6333 13.2086 15.9792 13.3693C16.3251 13.5299 16.6318 13.764 16.878 14.0552C16.0578 14.2029 15.3172 14.6385 14.7894 15.2836C14.2617 15.9287 13.9815 16.7409 13.9992 17.5742C14.0169 18.4075 14.3314 19.2071 14.8861 19.8291C15.4408 20.4512 16.1992 20.8549 17.0251 20.9676C17.8509 21.0803 18.6898 20.8947 19.3909 20.444C20.092 19.9933 20.6093 19.3073 20.8497 18.5092C21.09 17.7112 21.0377 16.8536 20.7022 16.0907C20.3666 15.3277 19.7698 14.7096 19.0192 14.3474V14.3501ZM7.00017 5.25007C7.00017 4.55784 7.20544 3.88115 7.59003 3.30557C7.97461 2.73 8.52124 2.2814 9.16078 2.01649C9.80032 1.75158 10.5041 1.68227 11.183 1.81732C11.8619 1.95237 12.4856 2.28571 12.975 2.7752C13.4645 3.26468 13.7979 3.88832 13.9329 4.56725C14.068 5.24619 13.9987 5.94992 13.7338 6.58946C13.4688 7.229 13.0202 7.77563 12.4447 8.16021C11.8691 8.5448 11.1924 8.75007 10.5002 8.75007C9.57191 8.75007 8.68168 8.38132 8.0253 7.72494C7.36892 7.06857 7.00017 6.17833 7.00017 5.25007ZM5.25017 17.5001C5.25017 17.8462 5.14754 18.1845 4.95524 18.4723C4.76295 18.7601 4.48964 18.9844 4.16987 19.1169C3.8501 19.2493 3.49823 19.284 3.15876 19.2164C2.8193 19.1489 2.50748 18.9822 2.26274 18.7375C2.01799 18.4928 1.85132 18.1809 1.7838 17.8415C1.71627 17.502 1.75093 17.1501 1.88338 16.8304C2.01584 16.5106 2.24014 16.2373 2.52793 16.045C2.81571 15.8527 3.15406 15.7501 3.50017 15.7501C3.9643 15.7501 4.40942 15.9344 4.73761 16.2626C5.0658 16.5908 5.25017 17.0359 5.25017 17.5001ZM12.2502 17.5001C12.2502 17.8462 12.1475 18.1845 11.9552 18.4723C11.763 18.7601 11.4896 18.9844 11.1699 19.1169C10.8501 19.2493 10.4982 19.284 10.1588 19.2164C9.8193 19.1489 9.50748 18.9822 9.26274 18.7375C9.01799 18.4928 8.85132 18.1809 8.7838 17.8415C8.71627 17.502 8.75093 17.1501 8.88338 16.8304C9.01584 16.5106 9.24014 16.2373 9.52792 16.045C9.81571 15.8527 10.1541 15.7501 10.5002 15.7501C10.9643 15.7501 11.4094 15.9344 11.7376 16.2626C12.0658 16.5908 12.2502 17.0359 12.2502 17.5001ZM17.5002 19.2501C17.1541 19.2501 16.8157 19.1474 16.5279 18.9551C16.2401 18.7628 16.0158 18.4895 15.8834 18.1698C15.7509 17.85 15.7163 17.4981 15.7838 17.1587C15.8513 16.8192 16.018 16.5074 16.2627 16.2626C16.5075 16.0179 16.8193 15.8512 17.1588 15.7837C17.4982 15.7162 17.8501 15.7508 18.1699 15.8833C18.4896 16.0157 18.763 16.24 18.9552 16.5278C19.1475 16.8156 19.2502 17.154 19.2502 17.5001C19.2502 17.9642 19.0658 18.4093 18.7376 18.7375C18.4094 19.0657 17.9643 19.2501 17.5002 19.2501Z" fill="#535364"/>
</g>
<defs>
<clipPath id="clip0_805_11908">
<rect width="21" height="21" fill="white"/>
</clipPath>
</defs>
</svg>
