<svg width="20" height="20" viewBox="0 0 20 20" fill="none" xmlns="http://www.w3.org/2000/svg">
<path d="M9.99984 17.0846H5.83317C3.33317 17.0846 1.6665 15.8346 1.6665 12.918V7.08464C1.6665 4.16797 3.33317 2.91797 5.83317 2.91797H14.1665C16.6665 2.91797 18.3332 4.16797 18.3332 7.08464V9.58464" stroke="#535364" stroke-width="1.5" stroke-miterlimit="10" stroke-linecap="round" stroke-linejoin="round"/>
<path d="M14.1668 7.5L11.5585 9.58333C10.7002 10.2667 9.29183 10.2667 8.43349 9.58333L5.8335 7.5" stroke="#535364" stroke-width="1.5" stroke-miterlimit="10" stroke-linecap="round" stroke-linejoin="round"/>
<path d="M15.1667 17.8333C16.6394 17.8333 17.8333 16.6394 17.8333 15.1667C17.8333 13.6939 16.6394 12.5 15.1667 12.5C13.6939 12.5 12.5 13.6939 12.5 15.1667C12.5 16.6394 13.6939 17.8333 15.1667 17.8333Z" stroke="#535364" stroke-width="1.5" stroke-linecap="round" stroke-linejoin="round"/>
<path d="M18.3333 18.3333L17.5 17.5" stroke="#535364" stroke-width="1.5" stroke-linecap="round" stroke-linejoin="round"/>
</svg>
