<svg width="22" height="22" viewBox="0 0 22 22" fill="none" xmlns="http://www.w3.org/2000/svg">
<path d="M6.85742 16.8193L9.69909 19.0193C10.0658 19.386 10.8908 19.5693 11.4408 19.5693H14.9241C16.0241 19.5693 17.2158 18.7443 17.4908 17.6443L19.6908 10.9526C20.1491 9.6693 19.3241 8.5693 17.9491 8.5693H14.2824C13.7324 8.5693 13.2741 8.11096 13.3658 7.4693L13.8241 4.53596C14.0074 3.71096 13.4574 2.7943 12.6324 2.5193C11.8991 2.2443 10.9824 2.61097 10.6158 3.16097L6.85742 8.75263" stroke="#535364" stroke-width="1.5" stroke-miterlimit="10"/>
<path d="M2.18164 16.8227V7.83932C2.18164 6.55599 2.73164 6.09766 4.01497 6.09766H4.93164C6.21497 6.09766 6.76497 6.55599 6.76497 7.83932V16.8227C6.76497 18.106 6.21497 18.5643 4.93164 18.5643H4.01497C2.73164 18.5643 2.18164 18.106 2.18164 16.8227Z" stroke="#535364" stroke-width="1.5" stroke-linecap="round" stroke-linejoin="round"/>
</svg>
