<svg width="20" height="20" viewBox="0 0 20 20" fill="none" xmlns="http://www.w3.org/2000/svg">
<g clip-path="url(#clip0_2287_2219)">
<path d="M19.3824 13.4995L17.2158 5.69033C16.7531 4.01984 15.745 2.55211 14.3518 1.52073C12.9587 0.489353 11.2606 -0.0464043 9.52782 -0.00127122C7.79504 0.0438618 6.12714 0.667292 4.78958 1.7698C3.45202 2.8723 2.52167 4.39052 2.1466 6.08283L0.470763 13.6245C0.389673 13.9899 0.391651 14.3688 0.476551 14.7333C0.56145 15.0978 0.727104 15.4386 0.961292 15.7305C1.19548 16.0224 1.49222 16.2581 1.82963 16.42C2.16704 16.5819 2.5365 16.6661 2.91076 16.6662H5.9166C6.10786 17.6081 6.61887 18.4549 7.36305 19.0631C8.10722 19.6714 9.0388 20.0037 9.99993 20.0037C10.9611 20.0037 11.8926 19.6714 12.6368 19.0631C13.381 18.4549 13.892 17.6081 14.0833 16.6662H16.9749C17.36 16.666 17.7399 16.5769 18.0848 16.4057C18.4298 16.2346 18.7306 15.986 18.9637 15.6795C19.1968 15.373 19.356 15.0168 19.4287 14.6386C19.5015 14.2605 19.486 13.8706 19.3833 13.4995H19.3824ZM9.99993 18.3328C9.48471 18.3307 8.98274 18.1694 8.56268 17.8711C8.14262 17.5728 7.825 17.1519 7.65326 16.6662H12.3466C12.1749 17.1519 11.8572 17.5728 11.4372 17.8711C11.0171 18.1694 10.5151 18.3307 9.99993 18.3328ZM17.6374 14.6703C17.5597 14.7734 17.4589 14.8568 17.3431 14.914C17.2274 14.9712 17.0999 15.0004 16.9708 14.9995H2.91076C2.78598 14.9995 2.6628 14.9714 2.5503 14.9174C2.43781 14.8634 2.33888 14.7849 2.26081 14.6875C2.18274 14.5902 2.12753 14.4765 2.09925 14.355C2.07097 14.2335 2.07035 14.1071 2.09743 13.9853L3.77326 6.44366C4.06856 5.1155 4.79935 3.92416 5.84948 3.05903C6.8996 2.1939 8.20878 1.70464 9.56891 1.669C10.929 1.63337 12.262 2.05342 13.356 2.86238C14.45 3.67134 15.2422 4.82278 15.6066 6.13366L17.7733 13.9428C17.8086 14.0663 17.8148 14.1963 17.7912 14.3226C17.7676 14.4489 17.715 14.5679 17.6374 14.6703Z" fill="#6D758F"/>
</g>
<defs>
<clipPath id="clip0_2287_2219">
<rect width="20" height="20" fill="white"/>
</clipPath>
</defs>
</svg>
