<svg width="20" height="20" viewBox="0 0 20 20" fill="none" xmlns="http://www.w3.org/2000/svg">
<path d="M10.0003 18.9599C9.44196 18.9599 8.87529 18.8182 8.37529 18.5265L3.42529 15.6682C2.42529 15.0849 1.80029 14.0099 1.80029 12.8515V7.15156C1.80029 5.99323 2.42529 4.91822 3.42529 4.33489L8.37529 1.47656C9.37529 0.893229 10.617 0.893229 11.6253 1.47656L16.5753 4.33489C17.5753 4.91822 18.2003 5.99323 18.2003 7.15156V12.8515C18.2003 14.0099 17.5753 15.0849 16.5753 15.6682L11.6253 18.5265C11.1253 18.8182 10.5586 18.9599 10.0003 18.9599ZM10.0003 2.29321C9.65863 2.29321 9.30863 2.38489 9.00029 2.55989L4.05029 5.41821C3.43363 5.77655 3.05029 6.43489 3.05029 7.15156V12.8515C3.05029 13.5599 3.43363 14.2265 4.05029 14.5849L9.00029 17.4432C9.61696 17.8015 10.3836 17.8015 11.0003 17.4432L15.9503 14.5849C16.567 14.2265 16.9503 13.5682 16.9503 12.8515V7.15156C16.9503 6.44323 16.567 5.77655 15.9503 5.41821L11.0003 2.55989C10.692 2.38489 10.342 2.29321 10.0003 2.29321Z" fill="url(#paint0_linear_2026_9437)"/>
<path d="M9.99977 9.79347C8.58311 9.79347 7.43311 8.64345 7.43311 7.22679C7.43311 5.81012 8.58311 4.66016 9.99977 4.66016C11.4164 4.66016 12.5664 5.81012 12.5664 7.22679C12.5664 8.64345 11.4164 9.79347 9.99977 9.79347ZM9.99977 5.91016C9.27477 5.91016 8.68311 6.50179 8.68311 7.22679C8.68311 7.95179 9.27477 8.54347 9.99977 8.54347C10.7248 8.54347 11.3164 7.95179 11.3164 7.22679C11.3164 6.50179 10.7248 5.91016 9.99977 5.91016Z" fill="url(#paint1_linear_2026_9437)"/>
<path d="M13.3332 14.5096C12.9915 14.5096 12.7082 14.2263 12.7082 13.8846C12.7082 12.7346 11.4915 11.793 9.99984 11.793C8.50817 11.793 7.2915 12.7346 7.2915 13.8846C7.2915 14.2263 7.00817 14.5096 6.6665 14.5096C6.32484 14.5096 6.0415 14.2263 6.0415 13.8846C6.0415 12.0429 7.8165 10.543 9.99984 10.543C12.1832 10.543 13.9582 12.0429 13.9582 13.8846C13.9582 14.2263 13.6748 14.5096 13.3332 14.5096Z" fill="url(#paint2_linear_2026_9437)"/>
<defs>
<linearGradient id="paint0_linear_2026_9437" x1="10.0003" y1="1.03906" x2="10.0003" y2="18.9599" gradientUnits="userSpaceOnUse">
<stop stop-color="#00DB62"/>
<stop offset="1" stop-color="#0DA2FF"/>
</linearGradient>
<linearGradient id="paint1_linear_2026_9437" x1="9.99977" y1="4.66016" x2="9.99977" y2="9.79347" gradientUnits="userSpaceOnUse">
<stop stop-color="#00DB62"/>
<stop offset="1" stop-color="#0DA2FF"/>
</linearGradient>
<linearGradient id="paint2_linear_2026_9437" x1="9.99984" y1="10.543" x2="9.99984" y2="14.5096" gradientUnits="userSpaceOnUse">
<stop stop-color="#00DB62"/>
<stop offset="1" stop-color="#0DA2FF"/>
</linearGradient>
</defs>
</svg>
