<svg width="18" height="19" viewBox="0 0 18 19" fill="none" xmlns="http://www.w3.org/2000/svg">
<path d="M3.53958 10.2344L3.53125 14.1427C3.53125 15.201 4.34792 16.3344 5.34792 16.6677L8.00625 17.551C8.46458 17.701 9.22292 17.701 9.68958 17.551L12.3479 16.6677C13.3479 16.3344 14.1646 15.201 14.1646 14.1427V10.276M16.6816 11.834V6.83398M7.22292 1.44271L2.20625 4.71771C0.597917 5.76771 0.597917 8.11771 2.20625 9.16771L7.22292 12.4427C8.12292 13.0344 9.60625 13.0344 10.5062 12.4427L15.4979 9.16771C17.0979 8.11771 17.0979 5.77605 15.4979 4.72605L10.5062 1.45105C9.60625 0.851047 8.12292 0.851047 7.22292 1.44271Z" stroke="url(#paint0_linear_805_11380)" stroke-width="1.5" stroke-linecap="round" stroke-linejoin="round"/>
<defs>
<linearGradient id="paint0_linear_805_11380" x1="17.1816" y1="6.83398" x2="17.1816" y2="11.834" gradientUnits="userSpaceOnUse">
<stop stop-color="#00DB62"/>
<stop offset="1" stop-color="#0DA2FF"/>
</linearGradient>
</defs>
</svg>
