<svg width="24" height="24" viewBox="0 0 24 24" fill="none" xmlns="http://www.w3.org/2000/svg">
<g clip-path="url(#clip0_805_11363)">
<path d="M15.7006 7.13483L13.8506 8.20083C13.341 7.68735 12.7016 7.32171 12.0006 7.14283V5.00083H10.0006V7.14283C9.29961 7.32171 8.66025 7.68735 8.15061 8.20083L6.30061 7.13483L5.30061 8.86683L7.16161 9.93983C7.06002 10.2845 7.00586 10.6415 7.00061 11.0008C7.00586 11.3602 7.06002 11.7171 7.16161 12.0618L5.30061 13.1348L6.30061 14.8668L8.15061 13.8008C8.66025 14.3143 9.29961 14.68 10.0006 14.8588V17.0008H12.0006V14.8588C12.7016 14.68 13.341 14.3143 13.8506 13.8008L15.7006 14.8668L16.7006 13.1348L14.8436 12.0618C14.9438 11.7169 14.9967 11.36 15.0006 11.0008C14.9954 10.6415 14.9412 10.2845 14.8396 9.93983L16.7006 8.86683L15.7006 7.13483ZM11.0006 13.0008C10.605 13.0008 10.2184 12.8835 9.88947 12.6638C9.56057 12.444 9.30422 12.1316 9.15285 11.7662C9.00147 11.4007 8.96186 10.9986 9.03903 10.6106C9.11621 10.2227 9.30669 9.86632 9.58639 9.58661C9.8661 9.30691 10.2225 9.11643 10.6104 9.03926C10.9984 8.96209 11.4005 9.00169 11.766 9.15307C12.1314 9.30444 12.4438 9.56079 12.6635 9.88969C12.8833 10.2186 13.0006 10.6053 13.0006 11.0008C13.0006 11.5313 12.7899 12.04 12.4148 12.415C12.0397 12.7901 11.531 13.0008 11.0006 13.0008ZM23.2726 11.1328C22.377 8.76922 21.212 6.51669 19.8006 4.41983C18.6282 2.83123 17.0464 1.59089 15.224 0.831258C13.4017 0.0716278 11.4072 -0.178762 9.45361 0.106828C7.51534 0.3824 5.68574 1.17027 4.15368 2.38911C2.62161 3.60795 1.44259 5.21359 0.738331 7.04029C0.0340701 8.86699 -0.169913 10.8485 0.147438 12.7804C0.464789 14.7123 1.29197 16.5244 2.54361 18.0298C2.83867 18.3842 3.00035 18.8307 3.00061 19.2918V24.0008H16.0006V21.0008H18.2476C18.9745 20.9991 19.6763 20.7342 20.223 20.2552C20.7697 19.7761 21.1245 19.1152 21.2216 18.3948L21.6706 15.0008H24.0006V12.7888C24.0006 12.7888 23.4866 11.6228 23.2726 11.1328ZM19.9176 13.0008L19.2396 18.1318C19.2078 18.3724 19.0897 18.5932 18.9072 18.753C18.7246 18.9129 18.4902 19.001 18.2476 19.0008H14.0006V22.0008H5.00061V19.2918C5.00008 18.3631 4.67461 17.4638 4.08061 16.7498C3.30631 15.826 2.72564 14.7559 2.37307 13.6032C2.02051 12.4505 1.90326 11.2387 2.02829 10.0397C2.15332 8.84082 2.51808 7.67926 3.10089 6.6241C3.6837 5.56893 4.47267 4.64169 5.42092 3.89747C6.36916 3.15325 7.45734 2.60723 8.62078 2.29187C9.78421 1.97651 10.9992 1.89823 12.1935 2.0617C13.3877 2.22517 14.537 2.62704 15.5729 3.24343C16.6088 3.85983 17.5102 4.67817 18.2236 5.64983C19.5192 7.62231 20.5975 9.72925 21.4396 11.9338C21.5956 12.2908 21.7516 12.6488 21.9076 13.0028L19.9176 13.0008Z" fill="#535364"/>
</g>
<defs>
<clipPath id="clip0_805_11363">
<rect width="24" height="24" fill="white"/>
</clipPath>
</defs>
</svg>
