<svg width="20" height="20" viewBox="0 0 20 20" fill="none" xmlns="http://www.w3.org/2000/svg">
<path d="M-1.36598e-07 16.875C5.3939e-05 16.6541 0.0879458 16.4424 0.24414 16.2861C0.400344 16.1299 0.612111 16.0421 0.833008 16.042L3.11328 16.042C3.29214 15.3839 3.68281 14.8029 4.22461 14.3887C4.76639 13.9745 5.42938 13.75 6.11133 13.75C6.79328 13.75 7.45627 13.9745 7.99805 14.3887C8.53983 14.8029 8.93051 15.3839 9.10937 16.042L19.167 16.042C19.3879 16.0421 19.5997 16.1299 19.7559 16.2861C19.9121 16.4424 19.9999 16.6541 20 16.875C20 17.096 19.9121 17.3086 19.7559 17.4648C19.5997 17.6209 19.3878 17.7089 19.167 17.709L9.10937 17.709C8.93049 18.3669 8.53963 18.9472 7.99805 19.3613C7.45627 19.7755 6.79328 20 6.11133 20C5.42935 20 4.7664 19.7755 4.22461 19.3613C3.68299 18.9472 3.29218 18.3669 3.11328 17.709L0.833008 17.709C0.612217 17.7089 0.400323 17.6209 0.244141 17.4648C0.0878602 17.3086 -1.46259e-07 17.096 -1.36598e-07 16.875ZM-4.37114e-07 10C1.17314e-05 9.77907 0.0879577 9.56739 0.24414 9.41113C0.400344 9.25493 0.612111 9.16708 0.833007 9.16699L10.8916 9.16699C11.0702 8.50877 11.4603 7.92706 12.002 7.51269C12.5437 7.09833 13.2076 6.87402 13.8896 6.87402C14.5715 6.87413 15.2347 7.09842 15.7764 7.51269C16.3181 7.92706 16.7082 8.50877 16.8867 9.16699L19.167 9.16699C19.3879 9.16708 19.5997 9.25493 19.7559 9.41113C19.912 9.56739 20 9.77907 20 10C20 10.2209 19.912 10.4326 19.7559 10.5889C19.5997 10.7451 19.3879 10.8329 19.167 10.833L16.8867 10.833C16.7082 11.4912 16.318 12.0729 15.7764 12.4873C15.2347 12.9016 14.5715 13.1259 13.8896 13.126C13.2076 13.126 12.5437 12.9017 12.002 12.4873C11.4603 12.0729 11.0702 11.4912 10.8916 10.833L0.833007 10.833C0.612111 10.8329 0.400344 10.7451 0.24414 10.5889C0.0879756 10.4326 -4.46771e-07 10.2209 -4.37114e-07 10ZM-7.3763e-07 3.125C5.63681e-05 2.90409 0.0879452 2.69236 0.24414 2.53613C0.400343 2.37993 0.612111 2.29208 0.833007 2.29199L3.11328 2.29199C3.29214 1.63388 3.68281 1.05287 4.22461 0.638672C4.76639 0.224512 5.42938 -2.37326e-07 6.11133 -2.67135e-07C6.79328 1.68692e-05 7.45627 0.224489 7.99805 0.638672C8.53983 1.05287 8.93051 1.63389 9.10937 2.29199L19.167 2.29199C19.3879 2.29208 19.5997 2.37993 19.7559 2.53613C19.9121 2.69236 19.9999 2.90409 20 3.125C20 3.34601 19.9121 3.55856 19.7559 3.71484C19.5997 3.87091 19.3878 3.9589 19.167 3.95898L9.10937 3.95898C8.93047 4.61695 8.53974 5.19818 7.99805 5.6123C7.45632 6.02637 6.79318 6.24998 6.11133 6.25C5.42949 6.25 4.76634 6.02634 4.22461 5.6123C3.68292 5.19819 3.29219 4.61693 3.11328 3.95898L0.833007 3.95898C0.612214 3.9589 0.400322 3.87091 0.24414 3.71484C0.0878596 3.55856 -7.4729e-07 3.34601 -7.3763e-07 3.125ZM12.459 9.71582C12.4028 9.99863 12.4316 10.2922 12.542 10.5586C12.6524 10.8249 12.8394 11.0527 13.0791 11.2129C13.3189 11.373 13.6013 11.458 13.8896 11.458C14.2761 11.4574 14.6466 11.3036 14.9199 11.0303C15.1932 10.7569 15.3472 10.3865 15.3477 10C15.3476 9.71159 15.2618 9.42926 15.1016 9.18945C14.9413 8.9498 14.7136 8.76267 14.4473 8.65234C14.1808 8.54201 13.8873 8.51307 13.6045 8.56934C13.3218 8.62559 13.0623 8.76496 12.8584 8.96875C12.6544 9.1727 12.5153 9.43293 12.459 9.71582ZM4.68066 16.5908C4.62442 16.8737 4.65331 17.1671 4.76367 17.4336C4.87407 17.6999 5.06106 17.9277 5.30078 18.0879C5.54043 18.248 5.82216 18.3339 6.11035 18.334C6.49692 18.3333 6.86825 18.1786 7.1416 17.9053C7.41473 17.632 7.56867 17.2614 7.56934 16.875C7.5693 16.5867 7.48335 16.3051 7.32324 16.0654C7.16303 15.8257 6.93534 15.6387 6.66895 15.5283C6.40247 15.4179 6.10906 15.389 5.82617 15.4453C5.54353 15.5016 5.28392 15.64 5.08008 15.8437C4.87613 16.0477 4.73693 16.3079 4.68066 16.5908ZM4.65234 3.125C4.65234 3.41343 4.73819 3.69572 4.89844 3.93555C5.05868 4.17529 5.28632 4.3623 5.55273 4.47266C5.8192 4.58303 6.11263 4.61193 6.39551 4.55566C6.67828 4.49939 6.9377 4.3601 7.1416 4.15625C7.34545 3.9524 7.48469 3.69287 7.54101 3.41016C7.59727 3.12732 7.56833 2.83382 7.45801 2.56738C7.34764 2.30094 7.16067 2.07333 6.9209 1.91309C6.68108 1.75284 6.39878 1.66699 6.11035 1.66699C5.72389 1.66756 5.35336 1.82145 5.08008 2.09473C4.80682 2.36806 4.65284 2.7385 4.65234 3.125Z" fill="#6D758F"/>
</svg>
