<svg width="20" height="20" viewBox="0 0 20 20" fill="none" xmlns="http://www.w3.org/2000/svg">
<path d="M14.9999 5.96797C14.9499 5.95964 14.8916 5.95964 14.8416 5.96797C13.6916 5.92631 12.7749 4.98464 12.7749 3.81797C12.7749 2.6263 13.7332 1.66797 14.9249 1.66797C16.1166 1.66797 17.0749 2.63464 17.0749 3.81797C17.0666 4.98464 16.1499 5.92631 14.9999 5.96797Z" stroke="#535364" stroke-width="1.5" stroke-linecap="round" stroke-linejoin="round"/>
<path d="M14.1417 12.0348C15.2834 12.2264 16.5417 12.0264 17.425 11.4348C18.6 10.6514 18.6 9.3681 17.425 8.58477C16.5334 7.9931 15.2584 7.7931 14.1167 7.9931" stroke="#535364" stroke-width="1.5" stroke-linecap="round" stroke-linejoin="round"/>
<path d="M4.97539 5.96797C5.02539 5.95964 5.08372 5.95964 5.13372 5.96797C6.28372 5.92631 7.20039 4.98464 7.20039 3.81797C7.20039 2.6263 6.24206 1.66797 5.05039 1.66797C3.85873 1.66797 2.90039 2.63464 2.90039 3.81797C2.90872 4.98464 3.82539 5.92631 4.97539 5.96797Z" stroke="#535364" stroke-width="1.5" stroke-linecap="round" stroke-linejoin="round"/>
<path d="M5.83353 12.0348C4.69186 12.2264 3.43353 12.0264 2.5502 11.4348C1.3752 10.6514 1.3752 9.3681 2.5502 8.58477C3.44186 7.9931 4.71686 7.7931 5.85853 7.9931" stroke="#535364" stroke-width="1.5" stroke-linecap="round" stroke-linejoin="round"/>
<path d="M9.9999 12.1906C9.9499 12.1823 9.89157 12.1823 9.84157 12.1906C8.69157 12.149 7.7749 11.2073 7.7749 10.0406C7.7749 8.84896 8.73323 7.89062 9.9249 7.89062C11.1166 7.89062 12.0749 8.85729 12.0749 10.0406C12.0666 11.2073 11.1499 12.1573 9.9999 12.1906Z" stroke="#535364" stroke-width="1.5" stroke-linecap="round" stroke-linejoin="round"/>
<path d="M7.5751 14.8148C6.4001 15.5982 6.4001 16.8815 7.5751 17.6648C8.90843 18.5565 11.0918 18.5565 12.4251 17.6648C13.6001 16.8815 13.6001 15.5982 12.4251 14.8148C11.1001 13.9315 8.90843 13.9315 7.5751 14.8148Z" stroke="#535364" stroke-width="1.5" stroke-linecap="round" stroke-linejoin="round"/>
</svg>
