<svg width="15" height="16" viewBox="0 0 15 16" fill="none" xmlns="http://www.w3.org/2000/svg">
<g clip-path="url(#clip0_2190_10947)">
<path d="M14.375 7.375H13.125V6.125C13.125 5.95924 13.0591 5.80027 12.9419 5.68306C12.8247 5.56585 12.6658 5.5 12.5 5.5C12.3342 5.5 12.1753 5.56585 12.0581 5.68306C11.9408 5.80027 11.875 5.95924 11.875 6.125V7.375H10.625C10.4592 7.375 10.3003 7.44084 10.1831 7.55805C10.0658 7.67526 10 7.83424 10 8C10 8.16576 10.0658 8.32473 10.1831 8.44194C10.3003 8.55915 10.4592 8.62499 10.625 8.62499H11.875V9.87499C11.875 10.0408 11.9408 10.1997 12.0581 10.3169C12.1753 10.4341 12.3342 10.5 12.5 10.5C12.6658 10.5 12.8247 10.4341 12.9419 10.3169C13.0591 10.1997 13.125 10.0408 13.125 9.87499V8.62499H14.375C14.5408 8.62499 14.6997 8.55915 14.8169 8.44194C14.9341 8.32473 15 8.16576 15 8C15 7.83424 14.9341 7.67526 14.8169 7.55805C14.6997 7.44084 14.5408 7.375 14.375 7.375Z" fill="#374957"/>
<path d="M5.625 8C6.36668 8 7.0917 7.78007 7.70839 7.36801C8.32507 6.95596 8.80572 6.37029 9.08955 5.68506C9.37338 4.99984 9.44764 4.24584 9.30295 3.51841C9.15825 2.79098 8.8011 2.1228 8.27665 1.59835C7.7522 1.0739 7.08402 0.716751 6.35659 0.572057C5.62916 0.427362 4.87516 0.501625 4.18994 0.785453C3.50471 1.06928 2.91904 1.54993 2.50699 2.16661C2.09493 2.7833 1.875 3.50832 1.875 4.25C1.87599 5.24426 2.2714 6.19751 2.97445 6.90056C3.67749 7.6036 4.63074 7.99901 5.625 8ZM5.625 1.75C6.11945 1.75 6.6028 1.89662 7.01393 2.17133C7.42505 2.44603 7.74548 2.83648 7.9347 3.29329C8.12392 3.75011 8.17343 4.25277 8.07696 4.73773C7.9805 5.22268 7.7424 5.66814 7.39277 6.01777C7.04314 6.3674 6.59768 6.6055 6.11273 6.70197C5.62777 6.79843 5.12511 6.74892 4.66829 6.5597C4.21148 6.37048 3.82103 6.05005 3.54633 5.63893C3.27162 5.2278 3.125 4.74445 3.125 4.25C3.125 3.58696 3.38839 2.95108 3.85723 2.48223C4.32607 2.01339 4.96196 1.75 5.625 1.75Z" fill="#374957"/>
<path d="M5.625 9.25C4.13367 9.25165 2.70389 9.84482 1.64935 10.8994C0.594818 11.9539 0.00165428 13.3837 0 14.875C0 15.0408 0.065848 15.1997 0.183058 15.3169C0.300269 15.4342 0.45924 15.5 0.625 15.5C0.79076 15.5 0.949732 15.4342 1.06694 15.3169C1.18415 15.1997 1.25 15.0408 1.25 14.875C1.25 13.7147 1.71094 12.6019 2.53141 11.7814C3.35188 10.9609 4.46468 10.5 5.625 10.5C6.78532 10.5 7.89812 10.9609 8.71859 11.7814C9.53906 12.6019 10 13.7147 10 14.875C10 15.0408 10.0658 15.1997 10.1831 15.3169C10.3003 15.4342 10.4592 15.5 10.625 15.5C10.7908 15.5 10.9497 15.4342 11.0669 15.3169C11.1842 15.1997 11.25 15.0408 11.25 14.875C11.2483 13.3837 10.6552 11.9539 9.60065 10.8994C8.54611 9.84482 7.11633 9.25165 5.625 9.25Z" fill="#374957"/>
</g>
<defs>
<clipPath id="clip0_2190_10947">
<rect width="15" height="15" fill="white" transform="translate(0 0.5)"/>
</clipPath>
</defs>
</svg>
