<svg width="22" height="28" viewBox="0 0 22 28" fill="none" xmlns="http://www.w3.org/2000/svg">
<path d="M17.6777 18.2673C17.342 18.3681 16.8492 18.3794 16.3209 18.3015C15.7538 18.2179 15.1754 18.0417 14.6068 17.7821C15.6207 17.6322 16.4071 17.6784 17.0799 17.9206C17.2392 17.978 17.501 18.1315 17.6777 18.2673ZM12.0212 17.3221C11.98 17.3335 11.9393 17.3443 11.8989 17.3557C11.6261 17.4312 11.3607 17.5048 11.1049 17.5704L10.76 17.6593C10.0662 17.8377 9.35689 18.02 8.65628 18.237C8.92253 17.5844 9.16991 16.9246 9.41212 16.2795C9.59146 15.8019 9.77458 15.3141 9.96397 14.8326C10.06 14.9939 10.1603 15.1552 10.2647 15.317C10.74 16.0528 11.3375 16.7331 12.0212 17.3221ZM10.2565 9.96282C10.3014 10.7681 10.1305 11.5428 9.87974 12.286C9.57086 11.367 9.42693 10.3522 9.81308 9.53295C9.91211 9.32295 9.99324 9.21067 10.0459 9.15208C10.1271 9.27962 10.234 9.56494 10.2565 9.96282ZM6.63448 20.1638C6.46093 20.4793 6.28379 20.7747 6.10223 21.0537C5.66408 21.7248 4.9475 22.4435 4.57938 22.4435C4.54316 22.4435 4.49932 22.4375 4.43527 22.3688C4.39404 22.3248 4.38743 22.2933 4.38943 22.2503C4.40184 22.0036 4.7235 21.5641 5.18947 21.1567C5.6124 20.787 6.09044 20.4583 6.63448 20.1638ZM18.8499 18.3023C18.7936 17.4803 17.4323 16.953 17.4189 16.9481C16.8927 16.7585 16.321 16.6664 15.6713 16.6664C14.9758 16.6664 14.2259 16.7686 13.2629 16.9973C12.4061 16.3799 11.6659 15.607 11.1128 14.7513C10.8686 14.3732 10.6491 13.9959 10.4577 13.6273C10.9249 12.4918 11.3456 11.2709 11.2692 9.90353C11.2075 8.80712 10.7211 8.07065 10.0596 8.07065C9.60585 8.07065 9.21516 8.41225 8.89746 9.08691C8.33074 10.2891 8.4797 11.8273 9.34002 13.6629C9.03017 14.4026 8.7423 15.1694 8.46366 15.9118C8.11697 16.8349 7.75975 17.7872 7.35714 18.6931C6.22806 19.1472 5.30049 19.6979 4.52746 20.374C4.02106 20.8161 3.41055 21.492 3.3757 22.1975C3.35869 22.5298 3.47078 22.8345 3.69857 23.0787C3.94057 23.3379 4.2446 23.4744 4.57889 23.4748C5.683 23.4748 6.74564 21.9329 6.94723 21.6236C7.35294 21.002 7.73268 20.3087 8.10478 19.5089C9.04195 19.1647 10.0407 18.9077 11.0087 18.6593L11.3554 18.5698C11.616 18.5025 11.8869 18.428 12.1647 18.3507C12.4587 18.2699 12.7612 18.1861 13.0686 18.1066C14.0626 18.7491 15.1315 19.1682 16.174 19.322C17.052 19.4518 17.8318 19.3765 18.3597 19.0968C18.8347 18.8453 18.8609 18.4573 18.8499 18.3023ZM20.9882 25.37C20.9882 26.8752 19.6829 26.9681 19.4195 26.9711H2.57905C1.10345 26.9711 1.01459 25.6353 1.01178 25.37L1.01158 2.62949C1.01158 1.12273 2.31925 1.03138 2.57885 1.02836H13.9549L13.961 1.03446V5.54677C13.961 6.45234 14.4996 8.16683 16.5394 8.16683H20.9502L20.988 8.20526L20.9882 25.37ZM19.9425 7.13832H16.5402C15.065 7.13832 14.9758 5.80978 14.9738 5.54692V2.06715L19.9425 7.13832ZM22 25.37V7.78099L14.9738 0.609715V0.57635H14.9402L14.3759 0H2.57908C1.68697 0 0 0.549735 0 2.62998V25.3704C0 26.2799 0.539214 28 2.57908 28H19.4211C20.3131 27.9998 22 27.45 22 25.37Z" fill="#0DA2FF"/>
</svg>
